<svg id="visual" viewBox="0 0 960 540" width="960" height="540" xmlns="http://www.w3.org/2000/svg" xmlns:xlink="http://www.w3.org/1999/xlink" version="1.1"><path d="M0 442L16 443C32 444 64 446 96 440.8C128 435.7 160 423.3 192 427.8C224 432.3 256 453.7 288 466.2C320 478.7 352 482.3 384 485.7C416 489 448 492 480 483C512 474 544 453 576 450.5C608 448 640 464 672 465.2C704 466.3 736 452.7 768 446.2C800 439.7 832 440.3 864 440.7C896 441 928 441 944 441L960 441L960 541L944 541C928 541 896 541 864 541C832 541 800 541 768 541C736 541 704 541 672 541C640 541 608 541 576 541C544 541 512 541 480 541C448 541 416 541 384 541C352 541 320 541 288 541C256 541 224 541 192 541C160 541 128 541 96 541C64 541 32 541 16 541L0 541Z" fill="#FFFFFF" stroke-linecap="round" stroke-linejoin="miter"></path></svg>